<svg viewBox="-100 -100 669 454" xmlns="http://www.w3.org/2000/svg">
  <path d="m 328,-88 c -17,0 -35,10 -43,27 -8,16 -64,249 -64,251 -2,8 -2,18 -3,34 v 23 l -5,9 c -22,41 -44,61 -76,61 -49,0 -74,-33 -74,-85 v -13 c 3,-39 14,-76 48,-167 16,-42 18,-50 18,-67 0,-47 -33,-83 -89,-83 -9,0 -17,0 -23,2 -39,10 -71,41 -95,90 -9,18 -13,30 -19,48 -2,7 -3,11 -3,14 0,4 4,7 6,9 h 14 c 19,0 16,0 20,-9 11,-42 28,-75 49,-96 15,-15 28,-21 44,-21 h 5 c 12,0 14,7 14,25 0,21 -1,26 -22,82 -28,76 -40,113 -45,145 -2,9 -2,23 -2,36 0,87 62,127 148,127 53,0 79,-27 103,-59 19,37 68,59 127,59 7,0 13,0 19,-1 66,-13 106,-75 132,-140 12,-31 25,-73 38,-123 13,-57 19,-75 19,-115 0,-40 -15,-67 -42,-74 -3,0 -5,-1 -7,-1 -29,0 -61,26 -61,58 0,12 5,23 16,32 24,20 36,43 36,80 0,5 0,10 -1,15 -3,18 -20,81 -31,110 -28,82 -65,122 -113,122 -16,0 -29,-4 -41,-12 -20,-15 -26,-31 -26,-69 0,-18 0,-24 2,-35 5,-38 61,-235 61,-260 0,-19 -16,-29 -34,-29 z"/>
</svg>
